<svg xmlns="http://www.w3.org/2000/svg" xmlns:xlink="http://www.w3.org/1999/xlink" version="1.1" class="marks" width="680" height="383.4" viewBox="0 0 680 383.4"><defs><clipPath id="clip1"><path d="M2,0L52,0C53.103830048988,0,54,0.896169951012,54,2L54,161.94C54,163.04383004898799,53.103830048988,163.94,52,163.94L2,163.94C0.896169951012,163.94,0,163.04383004898799,0,161.94L0,2C0,0.896169951012,0.896169951012,0,2,0Z"/></clipPath><clipPath id="clip2"><path d="M2,0L52,0C53.103830048988,0,54,0.896169951012,54,2L54,164.06C54,165.163830048988,53.103830048988,166.06,52,166.06L2,166.06C0.896169951012,166.06,0,165.163830048988,0,164.06L0,2C0,0.896169951012,0.896169951012,0,2,0Z"/></clipPath><clipPath id="clip3"><path d="M2,0L52,0C53.103830048988,0,54,0.896169951012,54,2L54,146.2C54,147.30383004898798,53.103830048988,148.2,52,148.2L2,148.2C0.896169951012,148.2,0,147.30383004898798,0,146.2L0,2C0,0.896169951012,0.896169951012,0,2,0Z"/></clipPath><clipPath id="clip4"><path d="M2,0L52,0C53.103830048988,0,54,0.896169951012,54,2L54,139.74C54,140.843830048988,53.103830048988,141.74,52,141.74L2,141.74C0.896169951012,141.74,0,140.843830048988,0,139.74L0,2C0,0.896169951012,0.896169951012,0,2,0Z"/></clipPath></defs><rect x="0" y="0" width="680" height="383.4" fill="hsl(0 0% 100%)" stroke="none" role="presentation" aria-hidden="true" data-vega-export-background="true"/><g role="presentation" transform="translate(0, 24)"><g transform="translate(32, 0)"><text x="0" y="0" fill="hsl(0 0% 0%)" font-family="OpenAI Sans, sans-serif" font-size="16" font-weight="bold" dominant-baseline="text-before-edge" text-anchor="start"><tspan x="0" dy="0">GDPval</tspan><tspan x="0" dy="19.2">Tarefas de trabalho intelectual</tspan></text></g><g role="presentation" aria-hidden="true" focusable="false" transform="translate(628, 0) scale(0.1282051282051282)"><path d="M59.7325 56.1915V41.6219C59.7325 40.3948 60.1929 39.4741 61.266 38.8613L90.5592 21.9915C94.5469 19.6912 99.3013 18.6181 104.208 18.6181C122.612 18.6181 134.268 32.8813 134.268 48.0637C134.268 49.1369 134.268 50.364 134.114 51.5911L103.748 33.8005C101.908 32.7274 100.067 32.7274 98.2267 33.8005L59.7325 56.1915ZM128.133 112.937V78.1222C128.133 75.9745 127.212 74.441 125.372 73.3678L86.878 50.9768L99.4538 43.7682C100.527 43.1554 101.448 43.1554 102.521 43.7682L131.814 60.6381C140.25 65.5464 145.923 75.9745 145.923 86.0961C145.923 97.7512 139.023 108.487 128.133 112.935V112.937ZM50.6841 82.2638L38.1083 74.9028C37.0351 74.29 36.5748 73.3693 36.5748 72.1422V38.4025C36.5748 21.9929 49.1506 9.5696 66.1744 9.5696C72.6162 9.5696 78.5962 11.7174 83.6585 15.5511L53.4461 33.0352C51.6062 34.1084 50.6855 35.6419 50.6855 37.7897V82.2653L50.6841 82.2638ZM77.7533 97.9066L59.7325 87.785V66.3146L77.7533 56.193L95.7725 66.3146V87.785L77.7533 97.9066ZM89.3321 144.53C82.8903 144.53 76.9103 142.382 71.848 138.549L102.06 121.064C103.9 119.991 104.821 118.458 104.821 116.31V71.8343L117.551 79.1954C118.624 79.8082 119.084 80.7289 119.084 81.956V115.696C119.084 132.105 106.354 144.529 89.3321 144.529V144.53ZM52.9843 110.33L23.6911 93.4601C15.2554 88.5517 9.58181 78.1237 9.58181 68.0021C9.58181 56.193 16.6365 45.611 27.5248 41.163V76.1299C27.5248 78.2776 28.4455 79.8111 30.2854 80.8843L68.6271 103.121L56.0513 110.33C54.9781 110.943 54.0574 110.943 52.9843 110.33ZM51.2983 135.482C33.9681 135.482 21.2384 122.445 21.2384 106.342C21.2384 105.115 21.3923 103.888 21.5448 102.661L51.7572 120.145C53.5971 121.218 55.4385 121.218 57.2784 120.145L95.7725 97.9081V112.478C95.7725 113.705 95.3122 114.625 94.239 115.238L64.9458 132.108C60.9582 134.408 56.2037 135.482 51.2969 135.482H51.2983ZM89.3321 153.731C107.889 153.731 123.378 140.542 126.907 123.058C144.083 118.61 155.126 102.507 155.126 86.0976C155.126 75.3617 150.525 64.9336 142.243 57.4186C143.01 54.1977 143.471 50.9768 143.471 47.7573C143.471 25.8267 125.68 9.41567 105.129 9.41567C100.989 9.41567 97.0011 10.0285 93.0134 11.4095C86.1112 4.66126 76.6024 0.367188 66.1744 0.367188C47.6171 0.367188 32.1282 13.5558 28.5994 31.0399C11.4232 35.4879 0.380859 51.5911 0.380859 68.0006C0.380859 78.7365 4.98133 89.1645 13.2631 96.6795C12.4963 99.9004 12.036 103.121 12.036 106.341C12.036 128.271 29.8265 144.682 50.3777 144.682C54.5178 144.682 58.5055 144.07 62.4931 142.689C69.3938 149.437 78.9026 153.731 89.3321 153.731Z" fill="hsl(0 0% 0%)"/></g></g><g transform="translate(32, 86.4)"><g fill="none" stroke-miterlimit="10" transform="translate(92,32)"><g class="mark-group role-frame root" role="graphics-object" aria-roledescription="group mark container"><g transform="translate(0,0)"><path class="background" aria-hidden="true" d="M0.5,0.5h258v200h-258Z"/><g><g class="mark-group role-axis" role="graphics-symbol" aria-roledescription="axis" aria-label="X-axis for a discrete scale with 4 values: GPT-5.4 Pro, GPT-5.4, GPT-5.2 Pro, GPT-5.2"><g transform="translate(0.5,204.5)"><path class="background" aria-hidden="true" d="M0,0h0v0h0Z" pointer-events="none"/><g><g class="mark-text role-axis-label" pointer-events="none"><text text-anchor="end" transform="translate(38.5,6) rotate(315) translate(0,9)" font-family="OpenAI Sans, sans-serif" font-size="12px" font-weight="normal" fill="hsl(0 0% 0%)" opacity="1">GPT-5.4 Pro</text><text text-anchor="end" transform="translate(98.5,6) rotate(315) translate(0,9)" font-family="OpenAI Sans, sans-serif" font-size="12px" font-weight="normal" fill="hsl(0 0% 0%)" opacity="1">GPT-5.4</text><text text-anchor="end" transform="translate(158.5,6) rotate(315) translate(0,9)" font-family="OpenAI Sans, sans-serif" font-size="12px" font-weight="normal" fill="hsl(0 0% 0%)" opacity="1">GPT-5.2 Pro</text><text text-anchor="end" transform="translate(218.5,6) rotate(315) translate(0,9)" font-family="OpenAI Sans, sans-serif" font-size="12px" font-weight="normal" fill="hsl(0 0% 0%)" opacity="1">GPT-5.2</text></g></g><path class="foreground" aria-hidden="true" d="" pointer-events="none" display="none"/></g></g><g class="mark-group role-axis" role="graphics-symbol" aria-roledescription="axis" aria-label="Y-axis titled 'Taxa de vitória em relação a profissionais do setor' for a linear scale with values from 0 to 1"><g transform="translate(-3.5,0.5)"><path class="background" aria-hidden="true" d="M0,0h0v0h0Z" pointer-events="none"/><g><g class="mark-text role-axis-label" pointer-events="none"><text text-anchor="end" transform="translate(-10,204)" font-family="SF Mono, monospace" font-size="12px" font-weight="normal" fill="hsl(0 0% 0%)" opacity="1">0%</text><text text-anchor="end" transform="translate(-10,164)" font-family="SF Mono, monospace" font-size="12px" font-weight="normal" fill="hsl(0 0% 0%)" opacity="1">20%</text><text text-anchor="end" transform="translate(-10,124)" font-family="SF Mono, monospace" font-size="12px" font-weight="normal" fill="hsl(0 0% 0%)" opacity="1">40%</text><text text-anchor="end" transform="translate(-10,84)" font-family="SF Mono, monospace" font-size="12px" font-weight="normal" fill="hsl(0 0% 0%)" opacity="1">60%</text><text text-anchor="end" transform="translate(-10,43.99999999999999)" font-family="SF Mono, monospace" font-size="12px" font-weight="normal" fill="hsl(0 0% 0%)" opacity="1">80%</text><text text-anchor="end" transform="translate(-10,4)" font-family="SF Mono, monospace" font-size="12px" font-weight="normal" fill="hsl(0 0% 0%)" opacity="1">100%</text></g><g class="mark-text role-axis-title" pointer-events="none"><text text-anchor="middle" transform="translate(-73.190625,100) rotate(-90) translate(0,-3)" font-family="OpenAI Sans, sans-serif" font-size="14px" font-weight="normal" fill="hsl(0 0% 0%)" opacity="1"><tspan>Taxa de vitória em relação a</tspan><tspan x="0" dy="16.8">profissionais do setor</tspan></text></g></g><path class="foreground" aria-hidden="true" d="" pointer-events="none" display="none"/></g></g><g class="mark-group role-scope" role="graphics-object" aria-roledescription="group mark container"><g transform="translate(12,36.06)"><path class="background" aria-hidden="true" d="M2,0L52,0C53.103830048988,0,54,0.896169951012,54,2L54,161.94C54,163.04383004898799,53.103830048988,163.94,52,163.94L2,163.94C0.896169951012,163.94,0,163.04383004898799,0,161.94L0,2C0,0.896169951012,0.896169951012,0,2,0Z" stroke-width="1"/><g clip-path="url(#clip1)"><g class="mark-group role-scope" role="graphics-object" aria-roledescription="group mark container"><g transform="translate(0,-36.06)"><path class="background" aria-hidden="true" d="M0,0h54v0h-54Z"/><g><g class="mark-rect role-mark layer_0_marks" role="graphics-object" aria-roledescription="rect mark container"><path aria-label="model: GPT-5.4 Pro; accuracy: 0.69; type: Wins; __painter_stack_order__: 0" role="graphics-symbol" aria-roledescription="bar" d="M0,61.519999999999996h54v138.48000000000002h-54Z" fill="hsl(221.29999999999995 48.7% 54.9%)" stroke="hsl(221.70000000000005 47.1% 34.1%)" stroke-width="1"/><path aria-label="model: GPT-5.4 Pro; accuracy: 0.13; type: Ties; __painter_stack_order__: 1" role="graphics-symbol" aria-roledescription="bar" d="M0,36.06h54v25.459999999999994h-54Z" fill="hsl(218.79999999999995 96% 90.2%)" stroke="hsl(221.70000000000005 47.1% 34.1%)" stroke-width="1"/></g></g><path class="foreground" aria-hidden="true" d="" display="none"/></g></g></g><path class="foreground" aria-hidden="true" d="M2,0L52,0C53.103830048988,0,54,0.896169951012,54,2L54,161.94C54,163.04383004898799,53.103830048988,163.94,52,163.94L2,163.94C0.896169951012,163.94,0,163.04383004898799,0,161.94L0,2C0,0.896169951012,0.896169951012,0,2,0Z" stroke="hsl(221.70000000000005 47.1% 34.1%)" stroke-width="1"/></g><g transform="translate(72,33.93999999999999)"><path class="background" aria-hidden="true" d="M2,0L52,0C53.103830048988,0,54,0.896169951012,54,2L54,164.06C54,165.163830048988,53.103830048988,166.06,52,166.06L2,166.06C0.896169951012,166.06,0,165.163830048988,0,164.06L0,2C0,0.896169951012,0.896169951012,0,2,0Z" stroke-width="1"/><g clip-path="url(#clip2)"><g class="mark-group role-scope" role="graphics-object" aria-roledescription="group mark container"><g transform="translate(0,-33.93999999999999)"><path class="background" aria-hidden="true" d="M0,0h54v0h-54Z"/><g><g class="mark-rect role-mark layer_0_marks" role="graphics-object" aria-roledescription="rect mark container"><path aria-label="model: GPT-5.4; accuracy: 0.71; type: Wins; __painter_stack_order__: 0" role="graphics-symbol" aria-roledescription="bar" d="M0,58.48h54v141.52h-54Z" fill="hsl(221.29999999999995 48.7% 54.9%)" stroke="hsl(221.70000000000005 47.1% 34.1%)" stroke-width="1"/><path aria-label="model: GPT-5.4; accuracy: 0.12; type: Ties; __painter_stack_order__: 1" role="graphics-symbol" aria-roledescription="bar" d="M0,33.93999999999999h54v24.540000000000006h-54Z" fill="hsl(218.79999999999995 96% 90.2%)" stroke="hsl(221.70000000000005 47.1% 34.1%)" stroke-width="1"/></g></g><path class="foreground" aria-hidden="true" d="" display="none"/></g></g></g><path class="foreground" aria-hidden="true" d="M2,0L52,0C53.103830048988,0,54,0.896169951012,54,2L54,164.06C54,165.163830048988,53.103830048988,166.06,52,166.06L2,166.06C0.896169951012,166.06,0,165.163830048988,0,164.06L0,2C0,0.896169951012,0.896169951012,0,2,0Z" stroke="hsl(221.70000000000005 47.1% 34.1%)" stroke-width="1"/></g><g transform="translate(132,51.800000000000004)"><path class="background" aria-hidden="true" d="M2,0L52,0C53.103830048988,0,54,0.896169951012,54,2L54,146.2C54,147.30383004898798,53.103830048988,148.2,52,148.2L2,148.2C0.896169951012,148.2,0,147.30383004898798,0,146.2L0,2C0,0.896169951012,0.896169951012,0,2,0Z" stroke-width="1"/><g clip-path="url(#clip3)"><g class="mark-group role-scope" role="graphics-object" aria-roledescription="group mark container"><g transform="translate(0,-51.800000000000004)"><path class="background" aria-hidden="true" d="M0,0h54v0h-54Z"/><g><g class="mark-rect role-mark layer_0_marks" role="graphics-object" aria-roledescription="rect mark container"><path aria-label="model: GPT-5.2 Pro; accuracy: 0.6; type: Wins; __painter_stack_order__: 0" role="graphics-symbol" aria-roledescription="bar" d="M0,80h54v120h-54Z" fill="hsl(221.29999999999995 48.7% 54.9%)" stroke="hsl(221.70000000000005 47.1% 34.1%)" stroke-width="1"/><path aria-label="model: GPT-5.2 Pro; accuracy: 0.14; type: Ties; __painter_stack_order__: 1" role="graphics-symbol" aria-roledescription="bar" d="M0,51.800000000000004h54v28.199999999999996h-54Z" fill="hsl(218.79999999999995 96% 90.2%)" stroke="hsl(221.70000000000005 47.1% 34.1%)" stroke-width="1"/></g></g><path class="foreground" aria-hidden="true" d="" display="none"/></g></g></g><path class="foreground" aria-hidden="true" d="M2,0L52,0C53.103830048988,0,54,0.896169951012,54,2L54,146.2C54,147.30383004898798,53.103830048988,148.2,52,148.2L2,148.2C0.896169951012,148.2,0,147.30383004898798,0,146.2L0,2C0,0.896169951012,0.896169951012,0,2,0Z" stroke="hsl(221.70000000000005 47.1% 34.1%)" stroke-width="1"/></g><g transform="translate(192,58.26)"><path class="background" aria-hidden="true" d="M2,0L52,0C53.103830048988,0,54,0.896169951012,54,2L54,139.74C54,140.843830048988,53.103830048988,141.74,52,141.74L2,141.74C0.896169951012,141.74,0,140.843830048988,0,139.74L0,2C0,0.896169951012,0.896169951012,0,2,0Z" stroke-width="1"/><g clip-path="url(#clip4)"><g class="mark-group role-scope" role="graphics-object" aria-roledescription="group mark container"><g transform="translate(0,-58.26)"><path class="background" aria-hidden="true" d="M0,0h54v0h-54Z"/><g><g class="mark-rect role-mark layer_0_marks" role="graphics-object" aria-roledescription="rect mark container"><path aria-label="model: GPT-5.2; accuracy: 0.5; type: Wins; __painter_stack_order__: 0" role="graphics-symbol" aria-roledescription="bar" d="M0,100.46h54v99.54h-54Z" fill="hsl(221.29999999999995 48.7% 54.9%)" stroke="hsl(221.70000000000005 47.1% 34.1%)" stroke-width="1"/><path aria-label="model: GPT-5.2; accuracy: 0.21; type: Ties; __painter_stack_order__: 1" role="graphics-symbol" aria-roledescription="bar" d="M0,58.26h54v42.199999999999996h-54Z" fill="hsl(218.79999999999995 96% 90.2%)" stroke="hsl(221.70000000000005 47.1% 34.1%)" stroke-width="1"/></g></g><path class="foreground" aria-hidden="true" d="" display="none"/></g></g></g><path class="foreground" aria-hidden="true" d="M2,0L52,0C53.103830048988,0,54,0.896169951012,54,2L54,139.74C54,140.843830048988,53.103830048988,141.74,52,141.74L2,141.74C0.896169951012,141.74,0,140.843830048988,0,139.74L0,2C0,0.896169951012,0.896169951012,0,2,0Z" stroke="hsl(221.70000000000005 47.1% 34.1%)" stroke-width="1"/></g></g><g class="mark-text role-mark layer_1_marks" role="graphics-object" aria-roledescription="text mark container"><text aria-label="model: GPT-5.4 Pro; y1: 0.82" role="graphics-symbol" aria-roledescription="text mark" text-anchor="middle" transform="translate(39,27.060000000000002)" font-family="OpenAI Sans, sans-serif" font-size="12px" fill="hsl(0 0% 0%)">82.0%</text><text aria-label="model: GPT-5.4; y1: 0.83" role="graphics-symbol" aria-roledescription="text mark" text-anchor="middle" transform="translate(99,24.93999999999999)" font-family="OpenAI Sans, sans-serif" font-size="12px" fill="hsl(0 0% 0%)">83.0%</text><text aria-label="model: GPT-5.2 Pro; y1: 0.74" role="graphics-symbol" aria-roledescription="text mark" text-anchor="middle" transform="translate(159,42.800000000000004)" font-family="OpenAI Sans, sans-serif" font-size="12px" fill="hsl(0 0% 0%)">74.1%</text><text aria-label="model: GPT-5.2; y1: 0.71" role="graphics-symbol" aria-roledescription="text mark" text-anchor="middle" transform="translate(219,49.26)" font-family="OpenAI Sans, sans-serif" font-size="12px" fill="hsl(0 0% 0%)">70.9%</text></g><g class="mark-text role-mark layer_2_marks" role="graphics-object" aria-roledescription="text mark container"><text aria-label="model: GPT-5.4 Pro; y1: 0.69; accuracy: 69.2%" role="graphics-symbol" aria-roledescription="text mark" text-anchor="middle" transform="translate(39,52.519999999999996)" font-family="OpenAI Sans, sans-serif" font-size="12px" fill="hsl(0 0% 0%)">69.2%</text><text aria-label="model: GPT-5.4; y1: 0.71; accuracy: 70.8%" role="graphics-symbol" aria-roledescription="text mark" text-anchor="middle" transform="translate(99,49.48)" font-family="OpenAI Sans, sans-serif" font-size="12px" fill="hsl(0 0% 0%)">70.8%</text><text aria-label="model: GPT-5.2 Pro; y1: 0.6; accuracy: 60.0%" role="graphics-symbol" aria-roledescription="text mark" text-anchor="middle" transform="translate(159,71)" font-family="OpenAI Sans, sans-serif" font-size="12px" fill="hsl(0 0% 0%)">60.0%</text><text aria-label="model: GPT-5.2; y1: 0.5; accuracy: 49.8%" role="graphics-symbol" aria-roledescription="text mark" text-anchor="middle" transform="translate(219,91.46)" font-family="OpenAI Sans, sans-serif" font-size="12px" fill="hsl(0 0% 0%)">49.8%</text></g><g class="mark-rule role-mark layer_3_marks" role="graphics-symbol" aria-roledescription="rule mark container"><line transform="translate(0,100)" x2="375" y2="0" stroke="hsl(0 0% 0%)" stroke-width="1" stroke-dasharray="4,4" opacity="1"/><line transform="translate(0,100)" x2="375" y2="0" stroke="hsl(0 0% 0%)" stroke-width="1" stroke-dasharray="4,4" opacity="1"/><line transform="translate(0,100)" x2="375" y2="0" stroke="hsl(0 0% 0%)" stroke-width="1" stroke-dasharray="4,4" opacity="1"/><line transform="translate(0,100)" x2="375" y2="0" stroke="hsl(0 0% 0%)" stroke-width="1" stroke-dasharray="4,4" opacity="1"/><line transform="translate(0,100)" x2="375" y2="0" stroke="hsl(0 0% 0%)" stroke-width="1" stroke-dasharray="4,4" opacity="1"/><line transform="translate(0,100)" x2="375" y2="0" stroke="hsl(0 0% 0%)" stroke-width="1" stroke-dasharray="4,4" opacity="1"/><line transform="translate(0,100)" x2="375" y2="0" stroke="hsl(0 0% 0%)" stroke-width="1" stroke-dasharray="4,4" opacity="1"/><line transform="translate(0,100)" x2="375" y2="0" stroke="hsl(0 0% 0%)" stroke-width="1" stroke-dasharray="4,4" opacity="1"/></g><g class="mark-text role-mark layer_4_marks" role="graphics-object" aria-roledescription="text mark container"><text aria-label="model: GPT-5.2" role="graphics-symbol" aria-roledescription="text mark" text-anchor="start" transform="translate(259,92)" font-family="OpenAI Sans, sans-serif" font-size="11px" fill="hsl(0 0% 0%)">Baseline de especialistas do setor</text><text aria-label="model: GPT-5.2" role="graphics-symbol" aria-roledescription="text mark" text-anchor="start" transform="translate(259,92)" font-family="OpenAI Sans, sans-serif" font-size="11px" fill="hsl(0 0% 0%)">Baseline de especialistas do setor</text></g><g class="mark-group role-legend" role="graphics-symbol" aria-roledescription="legend" aria-label="Symbol legend for fill color with 2 values: Wins, Ties"><g transform="translate(0,-32)"><path class="background" aria-hidden="true" d="M0,0h105v14h-105Z" pointer-events="none" stroke-width="1"/><g><g class="mark-group role-legend-entry"><g transform="translate(0,0)"><path class="background" aria-hidden="true" d="M0,0h0v0h0Z" pointer-events="none"/><g><g class="mark-group role-scope" role="graphics-object" aria-roledescription="group mark container"><g transform="translate(0,0)"><path class="background" aria-hidden="true" d="M0,0h49.317962646484375v14h-49.317962646484375Z" pointer-events="none" opacity="1"/><g><g class="mark-symbol role-legend-symbol" pointer-events="none"><path transform="translate(7,7)" d="M5,0A5,5,0,1,1,-5,0A5,5,0,1,1,5,0" fill="hsl(221.29999999999995 48.7% 54.9%)" stroke="hsl(221.70000000000005 47.1% 34.1%)" stroke-width="1" opacity="1"/></g><g class="mark-text role-legend-label" pointer-events="none"><text text-anchor="start" transform="translate(18,11)" font-family="OpenAI Sans, sans-serif" font-size="14px" font-weight="normal" fill="hsl(0 0% 0%)" opacity="1">Wins</text></g></g><path class="foreground" aria-hidden="true" d="" pointer-events="none" display="none"/></g><g transform="translate(60,0)"><path class="background" aria-hidden="true" d="M0,0h44.44596862792969v14h-44.44596862792969Z" pointer-events="none" opacity="1"/><g><g class="mark-symbol role-legend-symbol" pointer-events="none"><path transform="translate(7,7)" d="M5,0A5,5,0,1,1,-5,0A5,5,0,1,1,5,0" fill="hsl(218.79999999999995 96% 90.2%)" stroke="hsl(221.70000000000005 47.1% 34.1%)" stroke-width="1" opacity="1"/></g><g class="mark-text role-legend-label" pointer-events="none"><text text-anchor="start" transform="translate(18,11)" font-family="OpenAI Sans, sans-serif" font-size="14px" font-weight="normal" fill="hsl(0 0% 0%)" opacity="1">Ties</text></g></g><path class="foreground" aria-hidden="true" d="" pointer-events="none" display="none"/></g></g></g><path class="foreground" aria-hidden="true" d="" pointer-events="none" display="none"/></g></g></g><path class="foreground" aria-hidden="true" d="" pointer-events="none" display="none"/></g></g></g><path class="foreground" aria-hidden="true" d="" display="none"/></g></g></g></g></svg>